# xmcd
#
# Track frame offsets:
#	150
#	18525
#	33435
#	56889
#	77983
#	98376
#	116551
#	143354
#	167487
#	179517
#	192209
#	208664
#
# Disc length: 3178 seconds
#
# Revision: 1
# Processed by: cddbd v1.5.2PL0 Copyright (c) Steve Scherf et al.
# Submitted via: audiograbber 1.82.02
#
DISCID=9b0c680c
DTITLE=American Nights - Part one
DYEAR=1900
DGENRE=Country
TTITLE0=Tulsa Time
TTITLE1=Hardrock Cafe
TTITLE2=Joker
TTITLE3=Sitting´on thedock of the bay
TTITLE4=I stand in Wonder
TTITLE5=na na na blues
TTITLE6=Purple Rain
TTITLE7=Wonderful tonight
TTITLE8=I feel good
TTITLE9=Everybody
TTITLE10=Mercedes Benz
TTITLE11=Not the end
EXTD=
EXTT0=
EXTT1=
EXTT2=
EXTT3=
EXTT4=
EXTT5=
EXTT6=
EXTT7=
EXTT8=
EXTT9=
EXTT10=
EXTT11=
PLAYORDER=
